<svg width="29" height="27" viewBox="0 0 29 27" fill="none" xmlns="http://www.w3.org/2000/svg">
<path fill-rule="evenodd" clip-rule="evenodd" d="M14.2014 0C6.35514 0 0 6.19406 0 13.8415C0 19.9663 4.06516 25.1396 9.71023 26.9736C10.4203 27.0947 10.6866 26.6794 10.6866 26.3161C10.6866 25.9874 10.6688 24.8973 10.6688 23.7381C7.10072 24.3783 6.17763 22.8903 5.8936 22.1117C5.73383 21.7138 5.04151 20.4854 4.43795 20.1566C3.9409 19.8971 3.23083 19.2569 4.4202 19.2396C5.53856 19.2223 6.33739 20.2431 6.60367 20.6584C7.8818 22.7519 9.92325 22.1636 10.7398 21.8003C10.8641 20.9006 11.2369 20.295 11.6452 19.949C8.48536 19.603 5.18353 18.4091 5.18353 13.1148C5.18353 11.6095 5.73383 10.3638 6.63917 9.3949C6.49716 9.04886 6.00011 7.63011 6.78119 5.72691C6.78119 5.72691 7.97056 5.36357 10.6866 7.14566C11.8227 6.83422 13.0298 6.67851 14.2369 6.67851C15.4441 6.67851 16.6512 6.83422 17.7873 7.14566C20.5033 5.34627 21.6927 5.72691 21.6927 5.72691C22.4738 7.63011 21.9767 9.04886 21.8347 9.3949C22.7401 10.3638 23.2904 11.5922 23.2904 13.1148C23.2904 18.4265 19.9708 19.603 16.811 19.949C17.3258 20.3816 17.7696 21.212 17.7696 22.5097C17.7696 24.361 17.7518 25.8489 17.7518 26.3161C17.7518 26.6794 18.0181 27.112 18.7281 26.9736C21.5473 26.0459 23.9971 24.2799 25.7326 21.9242C27.4681 19.5684 28.402 16.7416 28.4029 13.8415C28.4029 6.19406 22.0477 0 14.2014 0Z" fill="black"/>
</svg>
