<svg width="23" height="22" viewBox="0 0 23 22" fill="none" xmlns="http://www.w3.org/2000/svg">
<path fill-rule="evenodd" clip-rule="evenodd" d="M0.115113 1.838C0.115113 1.35053 0.311545 0.883032 0.661196 0.53834C1.01085 0.193648 1.48508 2.45031e-06 1.97956 2.45031e-06H20.5652C20.8102 -0.000392101 21.053 0.0468654 21.2795 0.139069C21.506 0.231273 21.7118 0.366612 21.8852 0.537339C22.0585 0.708065 22.196 0.910826 22.2898 1.13401C22.3836 1.3572 22.4318 1.59643 22.4317 1.838V20.16C22.4319 20.4016 22.3839 20.6409 22.2902 20.8642C22.1966 21.0875 22.0592 21.2904 21.8859 21.4613C21.7127 21.6322 21.5069 21.7678 21.2805 21.8602C21.054 21.9526 20.8113 22.0001 20.5662 22H1.97956C1.73463 22 1.4921 21.9524 1.26583 21.86C1.03956 21.7676 0.833981 21.6321 0.660837 21.4613C0.487694 21.2905 0.350381 21.0878 0.256744 20.8647C0.163106 20.6416 0.114979 20.4025 0.115113 20.161V1.838ZM8.94841 8.388H11.9703V9.884C12.4065 9.024 13.5223 8.25 15.1991 8.25C18.4137 8.25 19.1755 9.963 19.1755 13.106V18.928H15.9223V13.822C15.9223 12.032 15.4861 11.022 14.3784 11.022C12.8416 11.022 12.2026 12.111 12.2026 13.822V18.928H8.94841V8.388ZM3.36927 18.791H6.62343V8.25H3.36927V18.791ZM7.08903 4.812C7.09517 5.08668 7.04559 5.35979 6.9432 5.61532C6.84082 5.87084 6.68769 6.10364 6.49281 6.30003C6.29792 6.49643 6.06521 6.65248 5.80832 6.75901C5.55144 6.86554 5.27555 6.92042 4.99686 6.92042C4.71817 6.92042 4.44228 6.86554 4.18539 6.75901C3.92851 6.65248 3.69579 6.49643 3.50091 6.30003C3.30602 6.10364 3.15289 5.87084 3.05051 5.61532C2.94813 5.35979 2.89855 5.08668 2.90468 4.812C2.91672 4.27286 3.14244 3.75979 3.53349 3.38269C3.92453 3.00558 4.44982 2.79442 4.99686 2.79442C5.54389 2.79442 6.06918 3.00558 6.46023 3.38269C6.85128 3.75979 7.07699 4.27286 7.08903 4.812Z" fill="black"/>
</svg>
