<svg width="28" height="21" viewBox="0 0 28 21" fill="none" xmlns="http://www.w3.org/2000/svg">
<path d="M27.4029 2.49098C26.3957 2.91193 25.3137 3.19635 24.1762 3.32491C25.3499 2.66254 26.228 1.62005 26.6466 0.391954C25.5439 1.00971 24.3371 1.44453 23.0786 1.67754C22.2323 0.825258 21.1113 0.260353 19.8897 0.0705278C18.6681 -0.119297 17.4143 0.0765775 16.3228 0.627742C15.2314 1.17891 14.3634 2.05452 13.8536 3.11865C13.3438 4.18277 13.2208 5.37587 13.5036 6.5127C11.2693 6.40689 9.08354 5.85916 7.0882 4.90504C5.09287 3.95093 3.33253 2.61176 1.92144 0.974449C1.43895 1.75945 1.16152 2.6696 1.16152 3.63891C1.16098 4.51151 1.38881 5.37074 1.8248 6.14037C2.26078 6.91001 2.89144 7.56624 3.66082 8.05085C2.76854 8.02408 1.89596 7.79668 1.11569 7.38758V7.45584C1.1156 8.6797 1.56444 9.86589 2.38606 10.8132C3.20768 11.7604 4.35146 12.4104 5.62334 12.6528C4.79561 12.8641 3.9278 12.8952 3.08545 12.7438C3.44429 13.7969 4.1433 14.7177 5.0846 15.3775C6.0259 16.0372 7.16238 16.4028 8.33493 16.4231C6.34446 17.8969 3.88624 18.6963 1.35572 18.6928C0.907469 18.6929 0.459592 18.6682 0.0144043 18.6188C2.58303 20.1765 5.57309 21.0032 8.62683 21C18.9642 21 24.6153 12.9247 24.6153 5.92111C24.6153 5.69357 24.6093 5.46376 24.5984 5.23622C25.6976 4.48645 26.6465 3.55801 27.4005 2.4944L27.4029 2.49098Z" fill="black"/>
</svg>
