<svg width="154" height="70" viewBox="0 0 154 70" fill="none" xmlns="http://www.w3.org/2000/svg">
<g clip-path="url(#clip0_133_2348)">
<path fill-rule="evenodd" clip-rule="evenodd" d="M24.5704 40.6801C20.3005 50.4008 16.377 60.4208 13.4298 68.5554C13.077 69.5291 12.0018 70.032 11.0282 69.6795C10.0546 69.3266 9.55127 68.2516 9.90402 67.2779C12.7484 59.4275 16.5101 49.792 20.6322 40.3264C14.1736 39.7038 7.3364 38.8375 0.121094 37.6848L0.288774 33.9627C7.34956 33.479 16.6286 32.2131 25.3526 29.9355C27.3513 25.7333 29.3828 21.7236 31.3918 18.101C35.3269 11.0053 39.3337 5.09381 42.9948 2.27151C44.8186 0.865509 47.0031 -0.112782 49.2315 0.588584C51.4252 1.27906 52.8665 3.35575 53.844 6.02118C55.9223 11.689 54.7115 16.6152 51.4069 20.6535C48.2006 24.5722 43.0761 27.6096 37.3138 29.9648C34.3853 31.1617 31.2377 32.2039 28.0036 33.1043C27.3946 34.4044 26.7891 35.7211 26.1886 37.0488C42.5248 38.3329 56.1911 38.0079 67.1827 36.8744C83.5261 35.1891 93.8352 31.7297 98.234 29.2068C99.1323 28.6916 100.278 29.0022 100.794 29.9005C101.309 30.7988 100.998 31.9446 100.1 32.4598C95.054 35.3535 84.1548 38.8941 67.5677 40.6047C56.039 41.7933 41.7036 42.1045 24.5704 40.6801ZM22.2288 36.7104C22.5901 35.9035 22.9536 35.0997 23.3189 34.3003C20.5479 34.9476 17.7605 35.4986 15.0359 35.961C17.4858 36.245 19.8834 36.494 22.2288 36.7104ZM30.1892 28.5443C32.1621 27.9196 34.0759 27.237 35.895 26.4935C41.4315 24.2306 45.8798 21.4868 48.5048 18.2787C51.0319 15.1903 51.9115 11.6443 50.3231 7.3121C49.4673 4.97752 48.5961 4.31985 48.1056 4.1656C47.6502 4.02224 46.7794 4.08887 45.2844 5.24147C42.3073 7.53635 38.6215 12.7967 34.6712 19.9198C33.1844 22.6007 31.6824 25.5031 30.1892 28.5443Z" fill="#114E60"/>
<path d="M38.1641 66.1328C38.0338 66.3845 37.8689 66.6274 37.6692 66.862C37.4783 67.0962 37.257 67.3045 37.0052 67.487C36.7622 67.6603 36.5018 67.8037 36.224 67.9166C35.9462 68.0207 35.6597 68.0728 35.3646 68.0728C34.8785 68.0728 34.4531 67.9816 34.0885 67.7995C33.7326 67.617 33.4288 67.3741 33.1771 67.0703C32.934 66.7578 32.7518 66.402 32.6302 66.0024C32.5087 65.6032 32.4479 65.1824 32.4479 64.7395V59.7003C32.3264 60.2562 32.1875 60.8549 32.0313 61.4974C31.875 62.1311 31.684 62.7645 31.4583 63.3982C31.2326 64.0232 30.9679 64.6266 30.6641 65.2082C30.3603 65.7899 30 66.3062 29.5833 66.7578C29.1753 67.2003 28.7066 67.5562 28.1771 67.8253C27.6476 68.0857 27.0443 68.2162 26.3672 68.2162C25.5425 68.2162 24.8047 68.0599 24.1537 67.7474C23.5026 67.4349 22.947 67.0049 22.487 66.4582C22.0356 65.9116 21.6884 65.2645 21.4453 64.5182C21.2109 63.7628 21.0938 62.947 21.0938 62.0703C21.0938 61.0286 21.2587 59.987 21.5885 58.9453C21.9184 57.8949 22.3698 56.8878 22.9427 55.9245C23.5243 54.9607 24.2101 54.0666 25 53.242C25.7986 52.4174 26.6667 51.7011 27.6042 51.0936C28.5417 50.4861 29.5269 50.0128 30.5599 49.6745C31.6016 49.3357 32.6519 49.1753 33.7109 49.1924H33.8672V49.7786C32.9557 49.822 32.079 50.0216 31.237 50.3774C30.395 50.7249 29.605 51.1849 28.8672 51.7578C28.138 52.322 27.4696 52.9774 26.862 53.7241C26.2543 54.4703 25.7335 55.2645 25.2995 56.1066C24.8741 56.9487 24.5399 57.8166 24.2969 58.7107C24.0625 59.6049 23.9453 60.4862 23.9453 61.3541C23.9453 61.6924 23.967 62.0574 24.0104 62.4478C24.0538 62.8299 24.1276 63.2162 24.2318 63.6066C24.3359 63.9887 24.4705 64.3574 24.6354 64.7132C24.8003 65.0607 25.0043 65.3732 25.2474 65.6507C25.4991 65.9199 25.7899 66.137 26.1198 66.302C26.4497 66.4582 26.8272 66.5366 27.2526 66.5366C27.7647 66.5366 28.2292 66.3799 28.6458 66.0674C29.0625 65.7549 29.4401 65.3341 29.7787 64.8045C30.1172 64.2749 30.4167 63.6587 30.6771 62.9557C30.9462 62.2524 31.1805 61.5103 31.3802 60.7291C31.5799 59.9478 31.7448 59.1537 31.875 58.3462C32.0139 57.5303 32.1224 56.7491 32.2005 56.0024C32.2873 55.2562 32.3481 54.5657 32.3828 53.9324C32.4262 53.2899 32.4479 52.7516 32.4479 52.3174L35.1433 51.3282V65.1691C35.1433 65.3428 35.1606 65.5166 35.1953 65.6899C35.23 65.8637 35.2908 66.0241 35.3776 66.1716C35.4644 66.3107 35.5729 66.4237 35.7031 66.5103C35.842 66.597 36.0113 66.6407 36.2109 66.6407C36.5147 66.6407 36.8012 66.5495 37.0703 66.367C37.3394 66.1849 37.5608 65.9807 37.7344 65.7549L38.1641 66.1328Z" fill="black"/>
<path d="M44.0232 66.3934C43.919 66.6188 43.7844 66.8318 43.6199 67.0313C43.4632 67.2309 43.2853 67.4088 43.0857 67.5651C42.8861 67.7213 42.6649 67.843 42.4215 67.9297C42.1874 68.0251 41.9444 68.073 41.6924 68.073C41.0155 68.073 40.5207 67.8863 40.2082 67.513C39.9044 67.1313 39.7524 66.6147 39.7524 65.9634V50.0784L42.1482 49.2451V66.0288C42.1482 66.2022 42.1874 66.363 42.2657 66.5105C42.3436 66.6493 42.4824 66.7188 42.6824 66.7188C42.8819 66.7188 43.0686 66.6409 43.2419 66.4842C43.4244 66.3197 43.5674 66.1588 43.6715 66.0026L44.0232 66.3934Z" fill="black"/>
<path d="M50.1434 66.3934C50.0392 66.6188 49.9046 66.8318 49.7396 67.0313C49.5834 67.2309 49.4055 67.4088 49.2059 67.5651C49.0063 67.7213 48.7846 67.843 48.5417 67.9297C48.3076 68.0251 48.0642 68.073 47.8126 68.073C47.1355 68.073 46.6409 67.8863 46.3284 67.513C46.0242 67.1313 45.8726 66.6147 45.8726 65.9634V50.0784L48.2684 49.2451V66.0288C48.2684 66.2022 48.3076 66.363 48.3855 66.5105C48.4634 66.6493 48.6026 66.7188 48.8021 66.7188C49.0017 66.7188 49.1884 66.6409 49.3621 66.4842C49.5442 66.3197 49.6876 66.1588 49.7917 66.0026L50.1434 66.3934Z" fill="black"/>
<path d="M55.7291 68.2163C55.0866 68.2163 54.4832 68.1034 53.9191 67.8776C53.3636 67.6434 52.8774 67.3221 52.4607 66.9142C52.0528 66.5063 51.7274 66.0288 51.4841 65.4817C51.2499 64.9263 51.1328 64.323 51.1328 63.6717C51.1328 62.9342 51.2541 62.2438 51.4974 61.6017C51.7403 60.9505 52.0745 60.3646 52.4999 59.8438C52.9341 59.323 53.4416 58.8717 54.0232 58.4896C54.6136 58.1076 55.2516 57.8084 55.9374 57.5913L56.3149 58.0467C55.9245 58.3334 55.5599 58.6634 55.2211 59.0367C54.8828 59.4009 54.5874 59.8005 54.3357 60.2342C54.0841 60.6596 53.8845 61.1113 53.737 61.5884C53.5895 62.0576 53.5157 62.5392 53.5157 63.0338C53.5157 63.4505 53.5761 63.8888 53.6978 64.3492C53.8195 64.8092 54.0016 65.2301 54.2449 65.6121C54.4878 65.9938 54.7916 66.3109 55.1561 66.5626C55.5295 66.8055 55.9591 66.9271 56.4453 66.9271C56.8791 66.9271 57.2524 66.8492 57.5649 66.6926C57.8862 66.5367 58.1507 66.3238 58.3591 66.0546C58.5674 65.7855 58.7241 65.473 58.8282 65.1171C58.9324 64.7526 58.9841 64.3709 58.9841 63.9713C58.9841 63.5026 58.8932 63.0251 58.7107 62.5392C58.5287 62.0442 58.277 61.5884 57.9557 61.1717C57.6432 60.7551 57.2741 60.408 56.8491 60.1301C56.4236 59.8526 55.9678 59.6917 55.4816 59.6484C55.7853 59.3013 56.1199 58.9801 56.4841 58.6851C56.8491 58.3896 57.2178 58.1076 57.5911 57.8384C58.0945 58.0034 58.5374 58.2467 58.9191 58.5676C59.3099 58.8888 59.6353 59.258 59.8957 59.6746C60.1649 60.0913 60.3686 60.5467 60.5078 61.0417C60.6466 61.528 60.7161 62.0226 60.7161 62.5259C60.7161 63.2117 60.5945 63.8934 60.3516 64.5705C60.117 65.2476 59.7787 65.8592 59.3357 66.4063C58.902 66.9446 58.3766 67.383 57.7603 67.7213C57.1528 68.0513 56.4757 68.2163 55.7291 68.2163Z" fill="black"/>
<path d="M75.3776 59.4664C75.3776 59.7355 75.343 60.0347 75.2734 60.3647C75.2126 60.6859 75.1218 60.9722 75.0001 61.2243L71.9663 67.7343C71.9143 67.8301 71.8405 67.891 71.7451 67.9168C71.658 67.9514 71.5626 67.9689 71.4584 67.9689C71.3368 67.9689 71.2197 67.9472 71.1068 67.9039C70.9939 67.8605 70.9159 67.778 70.8726 67.6564L68.8414 60.4818L67.0314 67.5651C66.9618 67.7126 66.8622 67.8255 66.7318 67.9039C66.6105 67.9818 66.4714 68.021 66.3151 68.021C66.2022 68.021 66.0939 67.9993 65.9897 67.9559C65.8943 67.9126 65.8334 67.8301 65.8076 67.7085L63.5159 60.391C63.4809 60.2868 63.4334 60.178 63.3726 60.0651C63.3205 59.9439 63.2509 59.8351 63.1643 59.7397C63.0859 59.6355 62.9951 59.553 62.8909 59.4922C62.7951 59.423 62.6826 59.388 62.5522 59.388C62.3784 59.388 62.218 59.4359 62.0705 59.5314C61.9314 59.6268 61.8055 59.7268 61.6926 59.8309L61.4326 59.4922C61.5626 59.2493 61.7276 59.0235 61.9272 58.8151C62.1268 58.598 62.348 58.4072 62.5914 58.2422C62.8343 58.0772 63.0905 57.9472 63.3593 57.8518C63.6372 57.7564 63.9193 57.7084 64.2059 57.7084C64.4489 57.7084 64.653 57.778 64.8176 57.9168C64.9826 58.0555 65.1218 58.2251 65.2343 58.4247C65.3472 58.6243 65.4384 58.8368 65.508 59.0626C65.5859 59.2884 65.6509 59.4922 65.7034 59.6747C65.9634 60.4905 66.2197 61.3109 66.4714 62.1355C66.7318 62.9601 66.988 63.7759 67.2397 64.5834L68.5289 59.3622L68.2034 58.3205L70.3909 57.5914L72.5259 65.1693L73.7501 62.3701C73.8022 62.2397 73.8455 62.0747 73.8801 61.8751C73.9151 61.6668 73.9326 61.493 73.9326 61.3543C73.9326 60.8334 73.798 60.3864 73.5288 60.013C73.2684 59.6397 72.9168 59.3405 72.4743 59.1147L73.9584 57.0576C74.4447 57.3005 74.8005 57.6301 75.0259 58.0468C75.2605 58.4551 75.3776 58.928 75.3776 59.4664Z" fill="black"/>
<path d="M86.0935 65.3775C85.7897 65.7683 85.4556 66.1329 85.091 66.4712C84.7352 66.81 84.3443 67.105 83.9189 67.3566C83.5023 67.6083 83.0597 67.8083 82.591 67.9558C82.1223 68.1033 81.636 68.1771 81.1327 68.1771C80.4902 68.1771 79.8998 68.0641 79.3618 67.8383C78.8235 67.6041 78.3589 67.2875 77.9685 66.8879C77.5781 66.48 77.2739 66.0025 77.0573 65.4558C76.8402 64.9 76.7314 64.3054 76.7314 63.6717C76.7314 63.1508 76.8052 62.6387 76.9531 62.1354C77.1006 61.6321 77.3089 61.1587 77.5781 60.7162C77.8469 60.2733 78.1639 59.8654 78.5285 59.4921C78.9018 59.1104 79.3098 58.7846 79.7523 58.5158C80.1952 58.2467 80.6639 58.0383 81.1585 57.8908C81.6535 57.7342 82.1614 57.6562 82.6823 57.6562C83.0464 57.6562 83.3893 57.6996 83.7106 57.7867C84.0406 57.8733 84.3314 58.0121 84.5831 58.2033C84.8347 58.3854 85.0343 58.6242 85.1822 58.9192C85.3297 59.2058 85.4035 59.5487 85.4035 59.9479C85.4035 60.2779 85.3035 60.625 85.1039 60.9896C84.9131 61.3542 84.6568 61.7187 84.3356 62.0833C84.0231 62.4479 83.6672 62.8083 83.2681 63.1642C82.8685 63.5112 82.4606 63.8367 82.0439 64.1408C81.636 64.4358 81.241 64.6962 80.8589 64.9216C80.4773 65.1475 80.1431 65.3212 79.8564 65.4425C80.1777 65.8421 80.551 66.1675 80.9764 66.4191C81.4018 66.6708 81.8531 66.7966 82.3306 66.7966C82.6343 66.7966 82.9423 66.7404 83.2547 66.6275C83.5672 66.5062 83.8668 66.3541 84.1535 66.1716C84.4485 65.9896 84.7264 65.79 84.9868 65.5729C85.256 65.3558 85.4947 65.1521 85.7031 64.9608L86.0935 65.3775ZM82.9556 60.4296C82.9556 60.23 82.9206 60.0392 82.8514 59.8567C82.7906 59.6746 82.6993 59.5183 82.5781 59.3879C82.4564 59.2492 82.3089 59.1408 82.1352 59.0625C81.9702 58.9758 81.7793 58.9325 81.5623 58.9325C81.1714 58.9325 80.8114 59.0712 80.4814 59.3492C80.1518 59.6179 79.8652 59.9521 79.6223 60.3517C79.3877 60.7508 79.201 61.1762 79.0623 61.6275C78.9323 62.0704 78.8669 62.4608 78.8669 62.7996C78.8669 63.1292 78.9189 63.4679 79.0231 63.815C79.1273 64.1625 79.2706 64.4966 79.4531 64.8175C79.8002 64.6266 80.1777 64.3621 80.5856 64.0233C80.9935 63.685 81.3714 63.3158 81.7185 62.9167C82.0743 62.5087 82.3698 62.0875 82.6039 61.6537C82.8381 61.2196 82.9556 60.8117 82.9556 60.4296Z" fill="black"/>
<path d="M98.242 66.3672C98.1378 66.593 98.0033 66.8055 97.8383 67.0051C97.6737 67.2051 97.4912 67.383 97.2916 67.5393C97.092 67.6955 96.8708 67.8214 96.6274 67.9168C96.3933 68.0034 96.1499 68.0468 95.8983 68.0468C95.2124 68.0468 94.7132 67.8605 94.4007 67.4872C94.097 67.1051 93.9453 66.5884 93.9453 65.9376V65.7034C93.7978 65.9984 93.6282 66.2934 93.4374 66.5884C93.2466 66.8839 93.0249 67.1484 92.7732 67.383C92.5303 67.6172 92.2524 67.8084 91.9399 67.9559C91.6362 68.1034 91.2932 68.1772 90.9116 68.1772C90.3299 68.1772 89.8174 68.0643 89.3749 67.8384C88.9407 67.6043 88.5762 67.2959 88.2812 66.9143C87.9861 66.5234 87.7603 66.0722 87.6041 65.5601C87.4566 65.048 87.3828 64.5097 87.3828 63.9455C87.3828 63.2164 87.4957 62.4826 87.7212 61.7451C87.947 61.0072 88.277 60.3384 88.7107 59.7397C89.1449 59.1409 89.6787 58.6547 90.3124 58.2814C90.9462 57.8993 91.6707 57.7084 92.487 57.7084C92.9903 57.7084 93.4766 57.8301 93.9453 58.073V50.0785L96.3541 49.2451V66.0026C96.3541 66.1764 96.3933 66.3368 96.4712 66.4843C96.5583 66.6234 96.697 66.6926 96.8878 66.6926C97.0874 66.6926 97.2741 66.6147 97.4478 66.4584C97.6216 66.2934 97.7603 66.1284 97.8645 65.9634L98.242 66.3672ZM93.9453 62.448V59.6747C93.7457 59.4751 93.5199 59.3101 93.2682 59.1797C93.0249 59.0497 92.7562 58.9843 92.4607 58.9843C91.9487 58.9843 91.5145 59.1234 91.1587 59.4009C90.8028 59.6789 90.512 60.0259 90.2866 60.4426C90.0607 60.8593 89.8957 61.3109 89.7916 61.7968C89.6874 62.2743 89.6353 62.7214 89.6353 63.138C89.6353 63.468 89.6657 63.8414 89.7266 64.258C89.7957 64.6659 89.9087 65.0522 90.0649 65.4168C90.2299 65.7726 90.4424 66.0764 90.7032 66.3284C90.972 66.5714 91.3062 66.6926 91.7057 66.6926C92.027 66.6926 92.3045 66.6234 92.5391 66.4843C92.782 66.3368 92.9862 66.1501 93.1507 65.9247C93.3157 65.6901 93.4503 65.4255 93.5545 65.1301C93.6587 64.8264 93.737 64.5184 93.7891 64.2059C93.8499 63.8934 93.8887 63.5851 93.9062 63.2814C93.9324 62.9689 93.9453 62.6909 93.9453 62.448Z" fill="black"/>
<path d="M118.008 48.8021C117.73 49.2188 117.4 49.6092 117.019 49.9742C116.636 50.3384 116.216 50.6596 115.755 50.9375C115.304 51.2154 114.826 51.4367 114.323 51.6017C113.82 51.7579 113.316 51.8359 112.813 51.8359L112.513 51.8621C112.184 52.2788 111.931 52.6825 111.758 53.0729C111.584 53.4634 111.498 53.9238 111.498 54.4534V62.7733C111.498 63.9279 111.25 64.9567 110.755 65.8592C110.269 66.7533 109.549 67.5258 108.594 68.1771L108.164 67.6825C108.312 67.5175 108.429 67.3308 108.516 67.1225C108.603 66.9054 108.668 66.6842 108.711 66.4583C108.754 66.2325 108.781 66.0071 108.789 65.7813C108.806 65.5467 108.815 65.3254 108.815 65.1171V55.9633C108.815 55.5554 108.898 55.1604 109.063 54.7788C109.236 54.3879 109.454 54.0192 109.714 53.6717C109.974 53.3246 110.261 52.9992 110.573 52.6954C110.894 52.3917 111.202 52.1138 111.498 51.8621L107.188 51.8359C106.858 51.8359 106.563 51.8709 106.302 51.94C106.051 52.0009 105.816 52.0921 105.599 52.2134C105.382 52.335 105.174 52.4871 104.974 52.6692C104.774 52.8517 104.571 53.0642 104.362 53.3075L103.984 52.9038C104.271 52.5129 104.592 52.1009 104.948 51.6667C105.313 51.2325 105.704 50.8375 106.12 50.4817C106.545 50.1259 106.997 49.8309 107.474 49.5963C107.96 49.3621 108.468 49.245 108.998 49.245H114.623C114.848 49.245 115.1 49.2317 115.378 49.2059C115.664 49.1796 115.951 49.1363 116.237 49.0754C116.524 49.0146 116.793 48.9367 117.044 48.8413C117.305 48.7371 117.522 48.6067 117.696 48.4504L118.008 48.8021Z" fill="black"/>
<path d="M127.318 65.3775C127.014 65.7683 126.68 66.1329 126.315 66.4712C125.959 66.81 125.569 67.105 125.144 67.3566C124.727 67.6083 124.284 67.8083 123.815 67.9558C123.346 68.1033 122.861 68.1771 122.357 68.1771C121.715 68.1771 121.124 68.0641 120.586 67.8383C120.048 67.6041 119.584 67.2875 119.193 66.8879C118.802 66.48 118.499 66.0025 118.281 65.4558C118.064 64.9 117.956 64.3054 117.956 63.6717C117.956 63.1508 118.03 62.6387 118.177 62.1354C118.325 61.6321 118.533 61.1587 118.802 60.7162C119.071 60.2733 119.388 59.8654 119.753 59.4921C120.126 59.1104 120.534 58.7846 120.977 58.5158C121.419 58.2467 121.888 58.0383 122.383 57.8908C122.878 57.7342 123.386 57.6562 123.906 57.6562C124.271 57.6562 124.614 57.6996 124.935 57.7867C125.265 57.8733 125.556 58.0121 125.808 58.2033C126.059 58.3854 126.259 58.6242 126.406 58.9192C126.554 59.2058 126.628 59.5487 126.628 59.9479C126.628 60.2779 126.528 60.625 126.329 60.9896C126.137 61.3542 125.881 61.7187 125.56 62.0833C125.248 62.4479 124.892 62.8083 124.492 63.1642C124.093 63.5112 123.685 63.8367 123.269 64.1408C122.861 64.4358 122.466 64.6962 122.084 64.9216C121.701 65.1475 121.367 65.3212 121.081 65.4425C121.402 65.8421 121.775 66.1675 122.201 66.4191C122.626 66.6708 123.077 66.7966 123.555 66.7966C123.859 66.7966 124.167 66.7404 124.479 66.6275C124.792 66.5062 125.091 66.3541 125.378 66.1716C125.673 65.9896 125.951 65.79 126.211 65.5729C126.48 65.3558 126.719 65.1521 126.927 64.9608L127.318 65.3775ZM124.18 60.4296C124.18 60.23 124.145 60.0392 124.076 59.8567C124.015 59.6746 123.924 59.5183 123.802 59.3879C123.681 59.2492 123.533 59.1408 123.359 59.0625C123.195 58.9758 123.004 58.9325 122.787 58.9325C122.396 58.9325 122.036 59.0712 121.706 59.3492C121.376 59.6179 121.09 59.9521 120.846 60.3517C120.612 60.7508 120.426 61.1762 120.287 61.6275C120.156 62.0704 120.091 62.4608 120.091 62.7996C120.091 63.1292 120.144 63.4679 120.248 63.815C120.352 64.1625 120.495 64.4966 120.677 64.8175C121.024 64.6266 121.402 64.3621 121.81 64.0233C122.218 63.685 122.596 63.3158 122.943 62.9167C123.299 62.5087 123.594 62.0875 123.829 61.6537C124.063 61.2196 124.18 60.8117 124.18 60.4296Z" fill="black"/>
<path d="M138.607 58.0991L137.63 60.3645C137.439 60.2082 137.227 60.0737 136.992 59.9608C136.767 59.8395 136.532 59.7787 136.289 59.7787C136.098 59.7787 135.916 59.8174 135.742 59.8957C135.577 59.9741 135.425 60.0782 135.287 60.2082C135.147 60.3382 135.026 60.4862 134.922 60.6507C134.817 60.8074 134.731 60.9632 134.662 61.1199L134.401 61.862C134.583 62.2437 134.761 62.6082 134.935 62.9557C135.082 63.2507 135.234 63.5503 135.391 63.8541C135.547 64.1491 135.677 64.3837 135.781 64.5574C135.946 64.8091 136.111 65.0695 136.276 65.3382C136.441 65.5991 136.623 65.8374 136.823 66.0545C136.91 66.1499 137.014 66.2153 137.135 66.2499C137.266 66.2757 137.383 66.2891 137.487 66.2891C137.652 66.2891 137.808 66.2674 137.956 66.2241C138.103 66.1803 138.242 66.1241 138.372 66.0545L138.698 66.4712C138.576 66.6624 138.429 66.8532 138.255 67.0441C138.082 67.2353 137.891 67.4087 137.682 67.5649C137.482 67.7212 137.266 67.847 137.031 67.9424C136.805 68.0466 136.575 68.0991 136.341 68.0991C136.133 68.0991 135.946 68.0641 135.781 67.9949C135.625 67.9341 135.482 67.8516 135.352 67.7474C135.221 67.6345 135.1 67.5041 134.987 67.3566C134.874 67.2091 134.757 67.0574 134.635 66.9007C134.54 66.7532 134.436 66.5753 134.323 66.367C134.219 66.1499 134.11 65.9287 133.997 65.7032C133.884 65.4774 133.772 65.2603 133.659 65.052C133.546 64.8349 133.437 64.6528 133.333 64.5049C133.29 64.6528 133.251 64.8003 133.216 64.9478C133.181 65.0695 133.142 65.1953 133.099 65.3253C133.055 65.4557 133.017 65.5553 132.982 65.6249C132.852 65.9028 132.687 66.1891 132.487 66.4841C132.287 66.7795 132.057 67.0487 131.797 67.2916C131.545 67.5257 131.267 67.7212 130.963 67.8774C130.659 68.0249 130.338 68.0991 130 68.0991C129.696 68.0991 129.401 68.0382 129.114 67.9166C128.828 67.8036 128.563 67.652 128.32 67.4607L129.141 65.2995C129.418 65.4728 129.722 65.6291 130.052 65.7682C130.382 65.8982 130.712 65.9632 131.042 65.9632C131.146 65.9632 131.254 65.9549 131.367 65.9374C131.48 65.9116 131.588 65.8766 131.692 65.8332C131.805 65.7812 131.905 65.7203 131.992 65.6507C132.079 65.5728 132.144 65.4816 132.187 65.3774C132.248 65.2645 132.313 65.117 132.383 64.9349C132.452 64.7524 132.522 64.5703 132.591 64.3878C132.669 64.1795 132.747 63.9582 132.825 63.7241L130.377 59.8045C130.264 59.6745 130.126 59.5703 129.961 59.492C129.804 59.4053 129.639 59.362 129.466 59.362C129.319 59.362 129.179 59.3924 129.049 59.4533C128.919 59.5049 128.793 59.5791 128.672 59.6745L128.32 59.2187C128.442 59.0366 128.585 58.8582 128.75 58.6849C128.924 58.5024 129.11 58.342 129.31 58.2033C129.509 58.0553 129.722 57.9382 129.948 57.8516C130.174 57.7562 130.404 57.7083 130.638 57.7083C130.924 57.7083 131.189 57.782 131.432 57.9295C131.675 58.0687 131.901 58.242 132.109 58.4503C132.317 58.6587 132.509 58.8845 132.682 59.1274C132.856 59.3708 133.012 59.5962 133.151 59.8045C133.22 59.8999 133.294 60.0216 133.372 60.1691C133.459 60.3082 133.542 60.447 133.62 60.5857C133.715 60.742 133.806 60.9116 133.893 61.0937C133.98 60.8853 134.071 60.677 134.167 60.4687C134.245 60.2949 134.323 60.117 134.401 59.9349C134.488 59.7437 134.566 59.5791 134.635 59.4399C134.766 59.197 134.913 58.9712 135.078 58.7628C135.243 58.5545 135.425 58.3724 135.625 58.2162C135.833 58.0599 136.059 57.9382 136.302 57.8516C136.545 57.7562 136.81 57.7083 137.096 57.7083C137.365 57.7083 137.626 57.7428 137.877 57.8124C138.129 57.882 138.372 57.9774 138.607 58.0991Z" fill="black"/>
<path d="M145.3 66.3932C145.1 66.8187 144.87 67.1441 144.609 67.3699C144.349 67.5953 144.093 67.7603 143.841 67.8645C143.555 67.9862 143.26 68.0553 142.956 68.0728C142.565 68.0728 142.244 68.012 141.992 67.8907C141.749 67.7691 141.554 67.6082 141.406 67.4087C141.268 67.2091 141.168 66.9832 141.107 66.7316C141.055 66.4799 141.029 66.2241 141.029 65.9632V59.1407H139.648L140.208 57.8382H141.029V53.2291L143.412 52.3958V57.8382H145.886L145.352 59.1407H143.412V66.0287C143.412 66.237 143.459 66.402 143.555 66.5232C143.65 66.6449 143.772 66.7099 143.919 66.7187C144.067 66.7187 144.232 66.6624 144.414 66.5495C144.596 66.4366 144.774 66.2541 144.948 66.0024L145.3 66.3932Z" fill="black"/>
<path d="M153.32 64.323C153.32 64.8613 153.22 65.3647 153.021 65.8334C152.821 66.3022 152.548 66.7101 152.2 67.0576C151.862 67.4047 151.454 67.678 150.977 67.8776C150.508 68.0772 150 68.1772 149.453 68.1772C149.219 68.1772 148.963 68.1555 148.685 68.1122C148.416 68.0688 148.147 68.0034 147.878 67.9167C147.608 67.8301 147.353 67.7213 147.109 67.5913C146.875 67.4609 146.68 67.3047 146.523 67.1226L148.06 65.1172C148.164 65.2822 148.29 65.4647 148.438 65.6642C148.594 65.8551 148.763 66.033 148.946 66.198C149.136 66.363 149.336 66.5017 149.544 66.6147C149.761 66.7188 149.978 66.7709 150.195 66.7709C150.447 66.7709 150.681 66.7276 150.898 66.6409C151.124 66.5538 151.32 66.4326 151.484 66.2759C151.649 66.1113 151.78 65.9201 151.875 65.7034C151.97 65.4863 152.018 65.2476 152.018 64.9872C152.018 64.6397 151.897 64.323 151.654 64.0367C151.419 63.7413 151.137 63.4592 150.808 63.1901C150.486 62.9126 150.148 62.6301 149.792 62.3438C149.445 62.0488 149.163 61.7276 148.946 61.3801L147.591 63.3592L147.083 62.9817L148.646 60.8205C148.524 60.5688 148.429 60.3038 148.359 60.0259C148.29 59.7484 148.255 59.4705 148.255 59.1926C148.255 58.9584 148.294 58.7109 148.373 58.4505C148.451 58.1901 148.563 57.9513 148.711 57.7342C148.858 57.5176 149.037 57.3397 149.245 57.2005C149.462 57.053 149.709 56.9792 149.987 56.9792C150.256 56.9792 150.482 57.0617 150.664 57.2267C150.855 57.3917 150.95 57.6217 150.95 57.9167C150.95 58.073 150.925 58.2292 150.873 58.3855C150.82 58.5417 150.755 58.698 150.677 58.8542C150.599 59.0105 150.512 59.1626 150.417 59.3101C150.321 59.4488 150.23 59.5792 150.143 59.7005C150.352 59.9959 150.577 60.2517 150.82 60.4688C151.063 60.6859 151.302 60.8897 151.537 61.0809C151.771 61.2717 151.997 61.4626 152.213 61.6538C152.43 61.8447 152.617 62.0617 152.773 62.3047C152.938 62.548 153.069 62.8301 153.164 63.1509C153.268 63.4722 153.32 63.863 153.32 64.323ZM150.365 58.1509C150.365 58.0297 150.321 57.9384 150.234 57.8776C150.156 57.8168 150.065 57.7867 149.961 57.7867C149.813 57.7867 149.709 57.8384 149.648 57.9426C149.588 58.0384 149.558 58.1467 149.558 58.2684C149.558 58.4417 149.583 58.6113 149.636 58.7759C149.696 58.9409 149.77 59.0972 149.857 59.2451C149.892 59.1842 149.935 59.1059 149.987 59.0105C150.048 58.9151 150.104 58.8151 150.156 58.7109C150.217 58.598 150.265 58.4938 150.3 58.3984C150.343 58.2943 150.365 58.2117 150.365 58.1509Z" fill="black"/>
</g>
<defs>
<clipPath id="clip0_133_2348">
<rect width="153.333" height="70" fill="white"/>
</clipPath>
</defs>
</svg>
