<svg width="40" height="40" viewBox="0 0 40 40" fill="none" xmlns="http://www.w3.org/2000/svg">
<rect x="40" y="40" width="40" height="40" rx="20" transform="rotate(-180 40 40)" fill="black"/>
<path fill-rule="evenodd" clip-rule="evenodd" d="M20.2929 27.7071C19.9024 27.3166 19.9024 26.6834 20.2929 26.2929L26.5858 20L20.2929 13.7071C19.9024 13.3166 19.9024 12.6834 20.2929 12.2929C20.6834 11.9024 21.3166 11.9024 21.7071 12.2929L28.7071 19.2929C29.0976 19.6834 29.0976 20.3166 28.7071 20.7071L21.7071 27.7071C21.3166 28.0976 20.6834 28.0976 20.2929 27.7071Z" fill="white"/>
<path fill-rule="evenodd" clip-rule="evenodd" d="M29 20C29 20.5523 28.5523 21 28 21L12 21C11.4477 21 11 20.5523 11 20C11 19.4477 11.4477 19 12 19L28 19C28.5523 19 29 19.4477 29 20Z" fill="white"/>
</svg>
